<svg width="48" height="49" viewBox="0 0 48 49" fill="none" xmlns="http://www.w3.org/2000/svg">
<mask id="mask0_645_1278" style="mask-type:alpha" maskUnits="userSpaceOnUse" x="0" y="0" width="48" height="49">
<rect y="0.5" width="48" height="48" fill="white"/>
</mask>
<g mask="url(#mask0_645_1278)">
<path d="M24 44.5C21.2333 44.5 18.6333 43.975 16.2 42.925C13.7667 41.875 11.65 40.45 9.85 38.65C8.05 36.85 6.625 34.7333 5.575 32.3C4.525 29.8667 4 27.2667 4 24.5C4 21.7333 4.525 19.1333 5.575 16.7C6.625 14.2667 8.05 12.15 9.85 10.35C11.65 8.55 13.7667 7.125 16.2 6.075C18.6333 5.025 21.2333 4.5 24 4.5C26.1667 4.5 28.2167 4.81667 30.15 5.45C32.0833 6.08333 33.8667 6.96667 35.5 8.1L32.6 11.05C31.3333 10.25 29.9833 9.625 28.55 9.175C27.1167 8.725 25.6 8.5 24 8.5C19.5667 8.5 15.7917 10.0583 12.675 13.175C9.55833 16.2917 8 20.0667 8 24.5C8 28.9333 9.55833 32.7083 12.675 35.825C15.7917 38.9417 19.5667 40.5 24 40.5C25.0667 40.5 26.1 40.4 27.1 40.2C28.1 40 29.0667 39.7167 30 39.35L33 42.4C31.6333 43.0667 30.2 43.5833 28.7 43.95C27.2 44.3167 25.6333 44.5 24 44.5ZM38 40.5V34.5H32V30.5H38V24.5H42V30.5H48V34.5H42V40.5H38ZM21.2 33.7L12.7 25.2L15.5 22.4L21.2 28.1L41.2 8.05L44 10.85L21.2 33.7Z" fill="white"/>
</g>
</svg>
