<svg width="17" height="19" viewBox="0 0 17 19" fill="none" xmlns="http://www.w3.org/2000/svg">
<path d="M1.62711 3.03939V2.53939H1.12711H0.500488V1.83612H4.95756H5.45756V1.33612V0.978516H11.2548V1.33612V1.83612H11.7548H16.2179V2.53939H15.5913H15.0913V3.03939V17.1878C15.0913 17.509 14.9789 17.7821 14.7299 18.0302C14.4809 18.2784 14.206 18.391 13.882 18.391H2.83636C2.49311 18.391 2.21703 18.2767 1.97906 18.0396C1.74117 17.8025 1.62711 17.5282 1.62711 17.1878V3.03939ZM14.382 3.03939V2.53939H13.882H2.83636H2.33636V3.03939V17.1878V17.6878H2.83636H13.882H14.382V17.1878V3.03939ZM6.55811 5.61059V14.5856H5.95646V5.61059H6.55811ZM10.7679 5.61059V14.5856H10.1603V5.61059H10.7679Z" fill="#1C1B1F" stroke="white"/>
</svg>
