<svg width="120" height="19" viewBox="0 0 120 19" fill="none" xmlns="http://www.w3.org/2000/svg">
<path d="M5.77759 17.9209H2.0979L2.12134 15.3896H5.77759C6.76978 15.3896 7.60181 15.1709 8.27368 14.7334C8.94556 14.2881 9.45337 13.6514 9.79712 12.8232C10.1409 11.9873 10.3127 10.9873 10.3127 9.82324V8.94434C10.3127 8.0459 10.2151 7.25293 10.0198 6.56543C9.82446 5.87793 9.5354 5.2998 9.15259 4.83105C8.77759 4.3623 8.31274 4.00684 7.75806 3.76465C7.20337 3.52246 6.56665 3.40137 5.8479 3.40137H2.02759V0.858398H5.8479C6.98853 0.858398 8.02759 1.0498 8.96509 1.43262C9.9104 1.81543 10.7268 2.36621 11.4143 3.08496C12.1096 3.7959 12.6409 4.64746 13.0081 5.63965C13.3831 6.63184 13.5706 7.74121 13.5706 8.96777V9.82324C13.5706 11.042 13.3831 12.1514 13.0081 13.1514C12.6409 14.1436 12.1096 14.9951 11.4143 15.7061C10.7268 16.417 9.90649 16.9639 8.95337 17.3467C8.00024 17.7295 6.94165 17.9209 5.77759 17.9209ZM3.90259 0.858398V17.9209H0.679932V0.858398H3.90259ZM22.9573 0.858398V17.9209H19.7463V0.858398H22.9573ZM28.2542 0.858398V3.40137H14.5081V0.858398H28.2542ZM30.3987 0.858398H36.5979C37.8948 0.858398 39.0081 1.05371 39.9377 1.44434C40.8674 1.83496 41.5823 2.41309 42.0823 3.17871C42.5823 3.94434 42.8323 4.88574 42.8323 6.00293C42.8323 6.88574 42.676 7.65137 42.3635 8.2998C42.051 8.94824 41.6096 9.49121 41.0393 9.92871C40.4768 10.3662 39.8127 10.71 39.0471 10.96L38.0393 11.4756H32.5667L32.5432 8.93262H36.6331C37.2971 8.93262 37.8479 8.81543 38.2854 8.58105C38.7229 8.34668 39.051 8.02246 39.2698 7.6084C39.4963 7.19434 39.6096 6.72168 39.6096 6.19043C39.6096 5.62012 39.5002 5.12793 39.2815 4.71387C39.0627 4.29199 38.7307 3.96777 38.2854 3.74121C37.8401 3.51465 37.2776 3.40137 36.5979 3.40137H33.6213V17.9209H30.3987V0.858398ZM40.0315 17.9209L36.0823 10.2803L39.4924 10.2686L43.4885 17.7568V17.9209H40.0315ZM52.4417 3.44824L47.5784 17.9209H44.1682L50.5432 0.858398H52.7229L52.4417 3.44824ZM56.5081 17.9209L51.6213 3.44824L51.3284 0.858398H53.5198L59.9299 17.9209H56.5081ZM56.2854 11.5811V14.124H47.1331V11.5811H56.2854ZM71.4612 12.3076H74.6838C74.5979 13.4482 74.2815 14.46 73.7346 15.3428C73.1877 16.2178 72.426 16.9053 71.4495 17.4053C70.4729 17.9053 69.2893 18.1553 67.8987 18.1553C66.8284 18.1553 65.8635 17.9678 65.0042 17.5928C64.1526 17.21 63.4221 16.667 62.8127 15.9639C62.2112 15.2529 61.7502 14.4014 61.4299 13.4092C61.1096 12.4092 60.9495 11.2881 60.9495 10.0459V8.74512C60.9495 7.50293 61.1135 6.38184 61.4417 5.38184C61.7698 4.38184 62.2385 3.53027 62.8479 2.82715C63.4651 2.11621 64.2034 1.56934 65.0627 1.18652C65.9299 0.803711 66.8987 0.612305 67.969 0.612305C69.3596 0.612305 70.5354 0.870117 71.4963 1.38574C72.4573 1.89355 73.2034 2.59277 73.7346 3.4834C74.2659 4.37402 74.5862 5.39746 74.6956 6.55371H71.4729C71.4104 5.83496 71.2542 5.22559 71.0042 4.72559C70.762 4.22559 70.3948 3.84668 69.9026 3.58887C69.4182 3.32324 68.7737 3.19043 67.969 3.19043C67.344 3.19043 66.7932 3.30762 66.3167 3.54199C65.8479 3.77637 65.4573 4.12793 65.1448 4.59668C64.8323 5.05762 64.5979 5.63574 64.4417 6.33105C64.2854 7.01855 64.2073 7.81543 64.2073 8.72168V10.0459C64.2073 10.9131 64.2776 11.6904 64.4182 12.3779C64.5588 13.0654 64.7776 13.6475 65.0745 14.124C65.3713 14.6006 65.7542 14.9639 66.2229 15.2139C66.6917 15.4639 67.2502 15.5889 67.8987 15.5889C68.6877 15.5889 69.3284 15.4639 69.8206 15.2139C70.3206 14.9639 70.6995 14.5967 70.9573 14.1123C71.2229 13.6279 71.3909 13.0264 71.4612 12.3076ZM80.4026 0.858398V17.9209H77.1799V0.858398H80.4026ZM90.6448 0.858398L83.801 9.17871L79.887 13.3623L79.3127 10.2334L82.0315 6.70605L86.6956 0.858398H90.6448ZM87.0588 17.9209L81.7502 9.92871L84.0588 7.84277L90.8909 17.9209H87.0588ZM103.699 15.3896V17.9209H94.6292V15.3896H103.699ZM95.6135 0.858398V17.9209H92.3909V0.858398H95.6135ZM102.516 7.90137V10.374H94.6292V7.90137H102.516ZM103.664 0.858398V3.40137H94.6292V0.858398H103.664ZM105.938 0.858398H112.137C113.434 0.858398 114.547 1.05371 115.477 1.44434C116.406 1.83496 117.121 2.41309 117.621 3.17871C118.121 3.94434 118.371 4.88574 118.371 6.00293C118.371 6.88574 118.215 7.65137 117.903 8.2998C117.59 8.94824 117.149 9.49121 116.578 9.92871C116.016 10.3662 115.352 10.71 114.586 10.96L113.578 11.4756H108.106L108.082 8.93262H112.172C112.836 8.93262 113.387 8.81543 113.824 8.58105C114.262 8.34668 114.59 8.02246 114.809 7.6084C115.035 7.19434 115.149 6.72168 115.149 6.19043C115.149 5.62012 115.039 5.12793 114.821 4.71387C114.602 4.29199 114.27 3.96777 113.824 3.74121C113.379 3.51465 112.817 3.40137 112.137 3.40137H109.16V17.9209H105.938V0.858398ZM115.571 17.9209L111.621 10.2803L115.031 10.2686L119.028 17.7568V17.9209H115.571Z" fill="#226E27"/>
</svg>
